<svg width="14" height="14" viewBox="0 0 14 14" fill="none" xmlns="http://www.w3.org/2000/svg">
<g clip-path="url(#clip0_18_41)">
<path d="M10.2743 9.05097C11.1215 7.89482 11.501 6.46139 11.3368 5.03747C11.1726 3.61355 10.4767 2.30414 9.38855 1.3712C8.30036 0.438272 6.90004 -0.049381 5.46774 0.00580799C4.03544 0.060997 2.67679 0.654958 1.66362 1.66886C0.65044 2.68276 0.0574516 4.04183 0.00328752 5.47417C-0.0508766 6.90651 0.437778 8.30648 1.37149 9.39401C2.3052 10.4815 3.61511 11.1764 5.03915 11.3396C6.46319 11.5028 7.89634 11.1223 9.05188 10.2742H9.05101C9.07726 10.3092 9.10526 10.3425 9.13676 10.3748L12.5055 13.7436C12.6696 13.9078 12.8921 14.0001 13.1243 14.0001C13.3564 14.0002 13.579 13.9081 13.7432 13.744C13.9074 13.58 13.9997 13.3574 13.9997 13.1253C13.9998 12.8932 13.9077 12.6705 13.7436 12.5063L10.3749 9.13759C10.3436 9.10592 10.31 9.07667 10.2743 9.05009V9.05097ZM10.5 5.68747C10.5 6.31945 10.3755 6.94525 10.1337 7.52913C9.89183 8.11301 9.53734 8.64354 9.09046 9.09042C8.64358 9.5373 8.11305 9.89179 7.52917 10.1336C6.94529 10.3755 6.31949 10.5 5.68751 10.5C5.05552 10.5 4.42972 10.3755 3.84584 10.1336C3.26196 9.89179 2.73144 9.5373 2.28456 9.09042C1.83767 8.64354 1.48319 8.11301 1.24134 7.52913C0.999486 6.94525 0.875007 6.31945 0.875007 5.68747C0.875007 4.41111 1.38204 3.18703 2.28456 2.28451C3.18707 1.382 4.41115 0.874966 5.68751 0.874966C6.96386 0.874966 8.18794 1.382 9.09046 2.28451C9.99298 3.18703 10.5 4.41111 10.5 5.68747V5.68747Z" fill="#9AA0A6"/>
</g>
<defs>
<clipPath id="clip0_18_41">
<rect width="14" height="14" fill="white"/>
</clipPath>
</defs>
</svg>
